<mxfile host="app.diagrams.net" agent="Mozilla/5.0 (Windows NT 10.0; Win64; x64) AppleWebKit/537.36 (KHTML, like Gecko) Chrome/126.0.0.0 Safari/537.36" version="24.7.8">
  <diagram name="Страница — 1" id="V_OWBHD-qWjR2RwBt7F0">
    <mxGraphModel dx="1434" dy="780" grid="1" gridSize="10" guides="1" tooltips="1" connect="1" arrows="1" fold="1" page="1" pageScale="1" pageWidth="827" pageHeight="1169" math="0" shadow="0">
      <root>
        <mxCell id="0" />
        <mxCell id="1" parent="0" />
        <mxCell id="7IpL9QvIJ3SOV6qmoihy-5" value="&lt;b&gt;&lt;font color=&quot;#ff6666&quot;&gt;Домашние животные&lt;/font&gt;&lt;/b&gt;" style="ellipse;whiteSpace=wrap;html=1;" vertex="1" parent="1">
          <mxGeometry x="70" y="160" width="400" height="280" as="geometry" />
        </mxCell>
        <mxCell id="7IpL9QvIJ3SOV6qmoihy-6" value="&lt;font color=&quot;#ff6666&quot;&gt;&lt;b&gt;Вьючные животеные&lt;/b&gt;&lt;/font&gt;" style="ellipse;whiteSpace=wrap;html=1;opacity=60;" vertex="1" parent="1">
          <mxGeometry x="330" y="240" width="400" height="230" as="geometry" />
        </mxCell>
        <mxCell id="7IpL9QvIJ3SOV6qmoihy-7" value="&lt;font color=&quot;#3c00ff&quot;&gt;Лошади&lt;/font&gt;&lt;div&gt;&lt;font color=&quot;#3c00ff&quot;&gt;&lt;br&gt;&lt;/font&gt;&lt;div&gt;&lt;font color=&quot;#3c00ff&quot;&gt;Ослы&lt;/font&gt;&lt;/div&gt;&lt;/div&gt;" style="text;html=1;align=center;verticalAlign=middle;whiteSpace=wrap;rounded=0;" vertex="1" parent="1">
          <mxGeometry x="360" y="310" width="90" height="40" as="geometry" />
        </mxCell>
        <mxCell id="7IpL9QvIJ3SOV6qmoihy-8" value="Собаки" style="text;html=1;align=center;verticalAlign=middle;whiteSpace=wrap;rounded=0;fillColor=#dae8fc;strokeColor=#6c8ebf;" vertex="1" parent="1">
          <mxGeometry x="190" y="200" width="60" height="30" as="geometry" />
        </mxCell>
        <mxCell id="7IpL9QvIJ3SOV6qmoihy-9" value="Кошки" style="text;html=1;align=center;verticalAlign=middle;whiteSpace=wrap;rounded=0;fillColor=#dae8fc;strokeColor=#6c8ebf;" vertex="1" parent="1">
          <mxGeometry x="130" y="315" width="60" height="30" as="geometry" />
        </mxCell>
        <mxCell id="7IpL9QvIJ3SOV6qmoihy-10" value="Хомяки" style="text;html=1;align=center;verticalAlign=middle;whiteSpace=wrap;rounded=0;fillColor=#dae8fc;strokeColor=#6c8ebf;" vertex="1" parent="1">
          <mxGeometry x="240" y="350" width="60" height="30" as="geometry" />
        </mxCell>
        <mxCell id="7IpL9QvIJ3SOV6qmoihy-11" value="Верблюды" style="text;html=1;align=center;verticalAlign=middle;whiteSpace=wrap;rounded=0;fillColor=#fff2cc;strokeColor=#d6b656;" vertex="1" parent="1">
          <mxGeometry x="540" y="380" width="100" height="50" as="geometry" />
        </mxCell>
      </root>
    </mxGraphModel>
  </diagram>
</mxfile>
